Coordinates
version=1
nRows=17
nColumns=24
inDegrees=yes

Units are S.I. units (second, meters, Newtons, ...)
Angles are in degrees.

endheader
time	pelvis_tilt	pelvis_list	pelvis_rotation	pelvis_tx	pelvis_ty	pelvis_tz	hip_flexion_r	hip_adduction_r	hip_rotation_r	knee_angle_r	ankle_angle_r	subtalar_angle_r	mtp_angle_r	hip_flexion_l	hip_adduction_l	hip_rotation_l	knee_angle_l	ankle_angle_l	subtalar_angle_l	mtp_angle_l	lumbar_extension	lumbar_bending	lumbar_rotation
      3.69000000	     -9.83796822	      7.04009970	    359.92387669	      0.55936615	      1.36805715	     -1.02736981	      6.25538484	     -6.69010397	      1.77409441	    -37.06144953	     -0.16902154	      0.69295518	     23.90671507	     25.34672455	     10.34445975	      2.74676101	     -6.13416952	    -14.06053177	     -9.34085804	     29.24928809	     -4.72990304	     -4.71142370	     14.60469945
      3.69500000	     -9.74361887	      7.22871057	    359.98180094	      0.56492066	      1.36852153	     -1.02816260	      6.89891355	     -7.01948018	      1.77868742	    -38.71057052	     -1.14054458	      0.94896771	     24.63937473	     25.22039527	     10.62456989	      2.80930525	     -6.73810734	    -13.69198040	     -9.28345985	     28.53102332	     -4.80764283	     -4.94486739	     14.46295329
      3.70000000	     -9.62504857	      7.41544642	    360.02880116	      0.57043258	      1.36899583	     -1.02893456	      7.53032579	     -7.34116234	      1.81352108	    -40.33334039	     -2.02038900	      1.21232362	     25.23154584	     25.05563204	     10.90011273	      2.82243017	     -7.31260028	    -13.29575199	     -9.16130705	     27.80832242	     -4.91180285	     -5.17137908	     14.32494509
      3.70500000	     -9.51652023	      7.58082921	    360.07847110	      0.57589486	      1.36944072	     -1.02971055	      8.18230647	     -7.63271381	      1.86663369	    -41.92315499	     -2.79681674	      1.46446158	     25.68317490	     24.89267052	     11.15677632	      2.81318733	     -7.86544001	    -12.86886878	     -8.99076293	     27.09839466	     -5.00118869	     -5.37590139	     14.19802014
      3.71000000	     -9.37955897	      7.73345159	    360.11636542	      0.58130520	      1.36990046	     -1.03046198	      8.80660935	     -7.90013415	      1.94794092	    -43.46234927	     -3.43866270	      1.70815781	     26.01748990	     24.68067994	     11.39712709	      2.76261633	     -8.37712342	    -12.42078820	     -8.76083756	     26.38436426	     -5.12403392	     -5.56250574	     14.06733231
      3.71500000	     -9.25111233	      7.86207317	    360.14678957	      0.58667119	      1.37035166	     -1.03120106	      9.44098065	     -8.12906265	      2.05455255	    -44.94568062	     -3.94924141	      1.91616152	     26.25958492	     24.46127720	     11.61072178	      2.69068773	     -8.85151968	    -11.96157866	     -8.50731889	     25.67934315	     -5.23024141	     -5.72356791	     13.95924941
      3.72000000	     -9.08874009	      7.96778067	    360.16649476	      0.59198867	      1.37084384	     -1.03192653	     10.03203979	     -8.32436760	      2.17232892	    -46.35787806	     -4.31569595	      2.12859123	     26.43060405	     24.18204360	     11.79881908	      2.58073927	     -9.27552129	    -11.50887881	     -8.21261166	     25.00209123	     -5.37377835	     -5.85619690	     13.85798143
      3.72500000	     -8.94515473	      8.03831379	    360.17937802	      0.59724721	      1.37132127	     -1.03264562	     10.64189459	     -8.46661433	      2.30997556	    -47.70563756	     -4.55203479	      2.27187991	     26.54835173	     23.90687467	     11.94941317	      2.47375464	     -9.66187552	    -11.05870122	     -7.93251107	     24.35347273	     -5.49446080	     -5.94306188	     13.76498616
      3.73000000	     -8.78970428	      8.07495050	    360.18575706	      0.60244605	      1.37182160	     -1.03335598	     11.23182382	     -8.56276606	      2.44864519	    -48.97951471	     -4.65985180	      2.38709524	     26.64075785	     23.60069080	     12.06459901	      2.35433950	    -10.00725423	    -10.62083842	     -7.64371707	     23.73566780	     -5.62507258	     -5.99214651	     13.68489803
      3.73500000	     -8.63848692	      8.08211536	    360.17787165	      0.60760063	      1.37234089	     -1.03404449	     11.82159197	     -8.61470988	      2.59707527	    -50.17699893	     -4.65781296	      2.44418252	     26.71453892	     23.27947238	     12.14519463	      2.22663077	    -10.31068015	    -10.19674907	     -7.37307338	     23.13080449	     -5.74955544	     -6.00622795	     13.62542809
      3.74000000	     -8.47614213	      8.05044235	    360.16516143	      0.61267543	      1.37288664	     -1.03472866	     12.39224881	     -8.61445196	      2.73857093	    -51.29803513	     -4.53882027	      2.43870543	     26.77801995	     22.93206791	     12.18747103	      2.11717243	    -10.58093603	     -9.79175889	     -7.13529941	     22.52087409	     -5.89249367	     -5.96833024	     13.56020506
      3.74500000	     -8.33994877	      7.99335778	    360.14210827	      0.61771975	      1.37341757	     -1.03539564	     12.98936941	     -8.57893497	      2.87836583	    -52.35007651	     -4.33719240	      2.37722084	     26.84150608	     22.59506573	     12.20040880	      2.02990363	    -10.81179546	     -9.41756908	     -6.95487405	     21.98102293	     -5.99265944	     -5.90637848	     13.52512618
      3.75000000	     -8.19231816	      7.91970365	    360.11171866	      0.62271476	      1.37398674	     -1.03602733	     13.56800093	     -8.51812342	      3.00576013	    -53.32508294	     -4.06383258	      2.25120604	     26.90101523	     22.22788290	     12.19467858	      1.95886419	    -11.00499811	     -9.06986363	     -6.81859841	     21.45115994	     -6.11034550	     -5.82785305	     13.47767280
      3.75500000	     -8.02105134	      7.79608451	    360.07537780	      0.62768328	      1.37460328	     -1.03666644	     14.10290099	     -8.40078191	      3.10556019	    -54.20579495	     -3.70450001	      2.06905606	     26.96744782	     21.81238826	     12.13999872	      1.93169025	    -11.14244208	     -8.84823211	     -6.89648219	     21.34966015	     -6.25178556	     -5.67596007	     13.42458783
      3.76000000	     -7.94419407	      7.68609077	    360.03950358	      0.63255883	      1.37510853	     -1.03726037	     14.76385004	     -8.28675802	      3.21632368	    -55.05939256	     -3.31594198	      1.80803930	     26.99496859	     21.51473086	     12.09686847	      1.93410910	    -11.32481481	     -8.45304052	     -6.74866984	     20.48033284	     -6.28887485	     -5.56536094	     13.40785876
      3.76500000	     -7.77766720	      7.53941917	    359.98335108	      0.63745333	      1.37575347	     -1.03782723	     15.29690039	     -8.13430770	      3.29683225	    -55.79473257	     -2.84825293	      1.56232793	     27.05741776	     21.08281244	     12.01028335	      1.94486316	    -11.41776418	     -8.23633537	     -6.85499694	     20.38261594	     -6.42322183	     -5.39065282	     13.36073978
      3.77000000	     -7.71973521	      7.38517913	    359.95717118	      0.64228917	      1.37628654	     -1.03839343	     15.95413044	     -7.96882577	      3.35385495	    -56.48592898	     -2.39074456	      1.18291048	     27.05304258	     20.78551329	     11.92898428	      2.06376389	    -11.56703201	     -7.89267448	     -6.88622497	     19.60160310	     -6.43773296	     -5.22540052	     13.29975778
